<svg height="512pt" viewBox="0 0 512 512" width="512pt" xmlns="http://www.w3.org/2000/svg"><path d="m447.101562 104.5-10.800781 27.898438c-30.300781-11.398438-99.300781-.898438-180.300781 38.699218-12.300781 6-24.601562 12.601563-37.5 19.800782-54 31.203124-100.199219 68.402343-129.601562 104.402343-25.796876 31.199219-36.300782 58.5-27.898438 73.199219l-24.300781 17.398438-1.5-2.097657c-15.300781-27-4.5-65.101562 30.300781-107.699219 32.097656-38.703124 81-78 138-111.003906 17.402344-10.199218 35.097656-19.199218 52.5-27.296875 77.699219-35.699219 150.300781-48.902343 191.101562-33.300781zm0 0" fill="#293939"/><path d="m482.5 168.699219c-10.5 53.101562-78.601562 123.300781-174 178.199219-17.402344 10.203124-35.097656 19.199218-52.5 27-55.199219 25.800781-108.898438 40.199218-150 40.199218h-1.199219l.296875-30c38.703125-.597656 94.800782-16.199218 150.902344-43.199218 12.597656-6 25.199219-12.597657 37.5-19.796876 99.601562-57.601562 152.402344-122.402343 159.300781-158.101562zm0 0" fill="#293939"/><path d="m256 171.097656v-33.296875c77.699219-35.703125 150.300781-48.902343 191.101562-33.300781l-10.800781 27.898438c-30.300781-11.398438-99.300781-.898438-180.300781 38.699218zm0 0" fill="#1c2023"/><path d="m482.5 168.699219c-10.5 53.101562-78.601562 123.300781-174 178.199219-17.402344 10.203124-35.097656 19.199218-52.5 27v-33c12.597656-6 25.199219-12.597657 37.5-19.796876 99.601562-57.601562 152.402344-122.402343 159.300781-158.101562zm0 0" fill="#1c2023"/><path d="m476.800781 383.5c-12.300781 21.597656-37.800781 30.597656-70.199219 30.597656-42.601562 0-97.199218-15.597656-150.601562-40.199218-18-8.097657-35.398438-17.097657-52.5-27-95.398438-54.898438-163.5-125.097657-174-178.199219l29.699219-5.699219c6.898437 35.699219 59.699219 100.5 159.300781 158.101562 12.597656 7.199219 25.199219 13.800782 37.5 19.796876 96.300781 47.101562 179.097656 54.601562 195 27.601562 8.402344-14.699219-2.101562-42-27.898438-73.199219-29.402343-36-75.601562-73.199219-129.601562-104.402343-12.898438-7.199219-25.199219-13.796876-37.5-19.796876-81-39.601562-150-50.101562-180.300781-38.699218l-10.800781-27.902344c40.800781-15.601562 113.402343-2.398438 191.101562 33.300781 17.402344 8.097657 35.097656 17.101563 52.5 27.300781 57 33 105.902344 72.300782 138 111 34.800781 42.597657 45.601562 80.699219 30.300781 107.398438zm0 0" fill="#3e5959"/><path d="m476.800781 383.5c-12.300781 21.597656-37.800781 30.597656-70.199219 30.597656-42.601562 0-97.199218-15.597656-150.601562-40.199218v-33c96.300781 47.101562 179.097656 54.601562 195 27.601562 8.402344-14.699219-2.101562-42-27.898438-73.199219-29.402343-36-75.601562-73.199219-129.601562-104.402343-12.898438-7.199219-25.199219-13.796876-37.5-19.796876v-33.300781c17.402344 8.097657 35.097656 17.097657 52.5 27.296875 57 33.003906 105.902344 72.300782 138 111 34.800781 42.601563 45.601562 80.703125 30.300781 107.402344zm0 0" fill="#293939"/><path d="m256 0c-68.101562 0-105 132.398438-105 256s36.898438 256 105 256 105-132.398438 105-256-36.898438-256-105-256zm0 482c-35.398438 0-75-97.300781-75-226s39.601562-226 75-226 75 97.300781 75 226-39.601562 226-75 226zm0 0" fill="#537983"/><path d="m361 256c0 123.601562-36.898438 256-105 256v-30c35.398438 0 75-97.300781 75-226s-39.601562-226-75-226v-30c68.101562 0 105 132.398438 105 256zm0 0" fill="#3e5959"/><path d="m256 211c-24.902344 0-45 20.097656-45 45 0 24.898438 20.097656 45 45 45s45-20.101562 45-45c0-24.902344-20.097656-45-45-45zm0 0" fill="#ff637b"/><path d="m46 181c-24.8125 0-46-20.1875-46-45s21.1875-45 46-45 45 20.1875 45 45-20.1875 45-45 45zm0 0" fill="#64e1dc"/><path d="m76 436c-24.8125 0-45-20.1875-45-45s20.1875-45 45-45 45 20.1875 45 45-20.1875 45-45 45zm0 0" fill="#64e1dc"/><path d="m466 181c-24.8125 0-45-20.1875-45-45s20.1875-45 45-45 45 20.1875 45 45-20.1875 45-45 45zm0 0" fill="#00c8c8"/><path d="m256 301v-90c24.902344 0 45 20.097656 45 45 0 24.898438-20.097656 45-45 45zm0 0" fill="#e63950"/></svg>