<svg id="Layer_1" data-name="Layer 1" xmlns="http://www.w3.org/2000/svg" viewBox="0 0 868 404"><defs><style>.cls-1{fill:#5dddd3;}.cls-2{fill:#ff5b61;}.cls-3{fill:#20d0c2;}.cls-4{fill:#1a91a1;}.cls-5{fill:#666;}.cls-6{fill:#fbb429;}.cls-7{fill:#ecf0f1;}.cls-10,.cls-8{fill:#fff;}.cls-9{fill:#f5a209;}.cls-10{font-size:48px;font-family:Montserrat-Bold, Montserrat;font-weight:700;}.cls-11{letter-spacing:-0.03em;}.cls-12{letter-spacing:-0.02em;}.cls-13{letter-spacing:0em;}.cls-14{letter-spacing:0.01em;}.cls-15{letter-spacing:-0.01em;}</style></defs><title>confeLogo</title><path class="cls-1" d="M174,18c90,0,163,70.29,163,157S264,332,174,332,11,261.71,11,175,84,18,174,18Z" transform="translate(-11 -18)"/><path class="cls-2" d="M105.72,158.18h63.87v5.36H105.72Zm0,28.66h63.87v5.36H105.72Zm0-14.33h63.87v5.36H105.72Z" transform="translate(-11 -18)"/><path class="cls-3" d="M105.72,94.84h63.87v5.36H105.72Zm0,28.66h63.87v5.36H105.72Zm0-14.33h63.87v5.36H105.72Z" transform="translate(-11 -18)"/><path class="cls-2" d="M111,285.34h53.23V280H111v5.36Z" transform="translate(-11 -18)"/><path class="cls-2" d="M111,64.66h53.23V70H111Z" transform="translate(-11 -18)"/><path class="cls-3" d="M105.72,221.87h63.87v5.36H105.72Zm0,28.66h63.87v5.36H105.72Zm0-14.33h63.87v5.36H105.72Z" transform="translate(-11 -18)"/><text x="-11" y="-18"/><path class="cls-4" d="M137.67,201.38c-14.35,2.6-23.84,7.45-30,13a32.53,32.53,0,0,0,0,49c6.2,5.54,15.69,10.4,30,13,12.08,2.2,18.79,7.61,22.5,13h13.38c-4-9.2-13-20.43-33.7-24.18C128,263,120.44,259.25,115.71,255a21.45,21.45,0,0,1,0-32.28c4.73-4.23,12.29-8,24.14-10.14,48.91-8.86,48.67-66.38,0-75.2-11.85-2.15-19.41-5.91-24.14-10.14a21.45,21.45,0,0,1,0-32.28c4.73-4.23,12.29-8,24.14-10.14,22.13-4,31-16.61,34.46-26.1H161.38c-3.4,5.93-10.18,12.42-23.71,14.87-14.35,2.6-23.83,7.46-30,13a32.53,32.53,0,0,0,0,49c6.21,5.55,15.69,10.4,30,13,36,6.52,36,46.24,0,52.76Z" transform="translate(-11 -18)"/><path class="cls-5" d="M173.73,114.08c34.44-8.68,69.66,11.17,78.67,44.34a60.33,60.33,0,0,1-13.5,56.2l30,28.56-6.25,5.93-29.95-28.47a65,65,0,0,1-26.39,13.55c-34.44,8.68-69.66-11.18-78.67-44.35s11.61-67.09,46-75.77Zm1.91,7h0C145.21,128.74,127,158.71,135,188s39.07,46.85,69.5,39.18,48.63-37.63,40.67-66.94-39.07-46.84-69.49-39.18Z" transform="translate(-11 -18)"/><path class="cls-3" d="M175.64,121.07c30.42-7.66,61.54,9.88,69.49,39.18s-10.25,59.28-40.67,66.94S142.92,217.32,135,188,145.21,128.74,175.64,121.07Z" transform="translate(-11 -18)"/><path class="cls-1" d="M186.91,228.91a60.31,60.31,0,0,1-35.39-39.68c-7.85-28.91,7.72-58.41,35.38-69.87,26.5-1.44,51.26,15.21,58.23,40.89,8,29.31-10.25,59.28-40.67,66.94a58.88,58.88,0,0,1-17.55,1.71h0Z" transform="translate(-11 -18)"/><path class="cls-6" d="M235.9,228.93l13.57-12.88a5.35,5.35,0,0,1,7.34,0l64.69,63a4.87,4.87,0,0,1-.05,7.07L307.89,299.1a5.35,5.35,0,0,1-7.34-.05L235.85,236a4.88,4.88,0,0,1,.06-7.07Z" transform="translate(-11 -18)"/><path class="cls-2" d="M139.52,148.85h57.37v8.34h-61A54.14,54.14,0,0,1,139.52,148.85Zm1.31,52.89h0a55.05,55.05,0,0,1-4.1-8.33h60.16v8.33Zm-7.46-22.28h0a51.63,51.63,0,0,1-.19-8.33h63.71v8.33Z" transform="translate(-11 -18)"/><path class="cls-2" d="M159.28,220.28a95.07,95.07,0,0,1,16.44,6.94A58.31,58.31,0,0,1,159.28,220.28Zm21-100.18h0a94,94,0,0,1-25.5,11,57.5,57.5,0,0,1,20.88-10C177.17,120.68,178.72,120.36,180.26,120.1Z" transform="translate(-11 -18)"/><path class="cls-4" d="M172.85,226.42c47.08-22.61,46.13-82.4-2.23-103.84a57.08,57.08,0,0,0-20.12,12.08C201.58,146.2,202.1,202.54,152,215A57.85,57.85,0,0,0,172.85,226.42Z" transform="translate(-11 -18)"/><path class="cls-7" d="M175.64,121.07a58.78,58.78,0,0,1,11.27-1.71c-.66.27-1.31.56-2,.85-1.33.24-2.65.53-4,.86-30.42,7.67-48.63,37.64-40.67,66.94,5.76,21.23,23.68,36.28,44.68,40.05.64.29,1.28.58,1.93.85-24-1.27-45.53-17.26-51.95-40.9-8-29.3,10.25-59.27,40.67-66.94Z" transform="translate(-11 -18)"/><path class="cls-8" d="M204,124.28a54.15,54.15,0,0,0-10.36-1.58c.6.25,1.2.52,1.79.79,1.22.22,2.44.49,3.66.8,1.57.4,3.1.86,4.61,1.39,25.74,8.85,40.6,35.06,33.54,60.73-4.65,16.89-17.7,29.57-33.77,35a54,54,0,0,1-8.06,2.12c-.59.27-1.18.54-1.78.79,22.11-1.18,41.88-16,47.78-38,7.32-27.19-9.43-55-37.41-62.12Z" transform="translate(-11 -18)"/><path class="cls-9" d="M290.39,284.92,235.3,231.25a6.86,6.86,0,0,1-.56-.65,4.88,4.88,0,0,0,1.11,5.4l52.35,51,12.35,12a5.36,5.36,0,0,0,5.8,1.06,5.88,5.88,0,0,1-1.4-1Z" transform="translate(-11 -18)"/><text class="cls-10" transform="translate(349.13 111.71)"><tspan class="cls-11">X<tspan class="cls-12" x="33.02" y="0">V</tspan><tspan class="cls-13" x="68.11" y="0">II Semana de </tspan></tspan><tspan x="0" y="57.6">Cie</tspan><tspan class="cls-14" x="79.92" y="57.6">n</tspan><tspan x="113.38" y="57.6" xml:space="preserve">cias en  UNAM </tspan><tspan x="0" y="115.2">FES A</tspan><tspan class="cls-15" x="143.85" y="115.2">r</tspan><tspan class="cls-14" x="164.21" y="115.2">a</tspan><tspan x="194.11" y="115.2">gón</tspan></text></svg>