<svg id="Layer_1" data-name="Layer 1" xmlns="http://www.w3.org/2000/svg" viewBox="0 0 481.17 83.25"><defs><style>.cls-1{fill:#5bd6fd;}.cls-2{fill:#7a8fa4;}.cls-3{fill:#5b778e;}.cls-4{fill:#00b4fb;}.cls-5{fill:#a6b6c4;}.cls-6{fill:#3d4f61;}.cls-7{fill:#334151;}.cls-8{font-size:48px;fill:#fff;font-family:Montserrat-SemiBold, Montserrat SemiBold;font-weight:600;}.cls-9{letter-spacing:0em;}.cls-10{letter-spacing:-0.01em;}.cls-11{letter-spacing:0em;}</style></defs><title>microscope</title><path class="cls-1" d="M74.16,59.49H41.53v9.27H74.16a2.35,2.35,0,0,0,2.36-2.35V61.84A2.35,2.35,0,0,0,74.16,59.49Z" transform="translate(-16.83 -6)"/><path class="cls-2" d="M40.26,70.69a27.06,27.06,0,0,1-4.52-41.16l8.52,8.13a15.3,15.3,0,0,0,2.56,23.26Z" transform="translate(-16.83 -6)"/><path class="cls-3" d="M33.27,48.21a26.9,26.9,0,0,1,5.26-16l-2.79-2.66a27.06,27.06,0,0,0,4.52,41.16L42,68.11A27,27,0,0,1,33.27,48.21Z" transform="translate(-16.83 -6)"/><path class="cls-2" d="M59.59,43.14l5.8-6.63,9.41,8.22L69,51.36Z" transform="translate(-16.83 -6)"/><path class="cls-3" d="M62.93,40.13l2.87-3.27-.41-.35-5.8,6.63L69,51.36,71.94,48Z" transform="translate(-16.83 -6)"/><path class="cls-2" d="M27.35,13.91l4.77-5.46,11.19,9.79L38.54,23.7Z" transform="translate(-16.83 -6)"/><path class="cls-3" d="M30.69,10.57l1.67-1.91-.24-.21-4.77,5.46L38.54,23.7l3.11-3.55Z" transform="translate(-16.83 -6)"/><path class="cls-1" d="M40.8,13,33,21.9a2.83,2.83,0,0,0,.27,4L57.19,46.76a2.83,2.83,0,0,0,4-.27l7.76-8.87a2.83,2.83,0,0,0-.27-4L44.78,12.77A2.82,2.82,0,0,0,40.8,13Z" transform="translate(-16.83 -6)"/><path class="cls-4" d="M64.51,42.65a2.83,2.83,0,0,1-4,.27L36.65,22a2.82,2.82,0,0,1-.44-3.76L33,21.9a2.83,2.83,0,0,0,.27,4L57.19,46.76a2.83,2.83,0,0,0,4-.27Z" transform="translate(-16.83 -6)"/><path class="cls-4" d="M41.53,68.76H57l-3.27-7.42a14.19,14.19,0,0,0-1-1.85H41.53Z" transform="translate(-16.83 -6)"/><path class="cls-5" d="M26.34,75.88l5.52-12.52a9.47,9.47,0,0,1,17.32,0l5.53,12.52L40.52,78.46Z" transform="translate(-16.83 -6)"/><path class="cls-2" d="M43.64,65.79a3.12,3.12,0,1,1-3.12-3.11A3.12,3.12,0,0,1,43.64,65.79Z" transform="translate(-16.83 -6)"/><path class="cls-5" d="M48.11,32.49a7.25,7.25,0,1,1-7.25-7.24A7.25,7.25,0,0,1,48.11,32.49Z" transform="translate(-16.83 -6)"/><path class="cls-2" d="M43.67,32.49a2.81,2.81,0,1,1-2.81-2.81A2.81,2.81,0,0,1,43.67,32.49Z" transform="translate(-16.83 -6)"/><path class="cls-6" d="M72.61,42.82l-5.8,6.63A1.6,1.6,0,0,0,67,51.7l2,1.72a1.6,1.6,0,0,0,2.25-.15L77,46.64a1.59,1.59,0,0,0-.15-2.25l-2-1.72A1.61,1.61,0,0,0,72.61,42.82Z" transform="translate(-16.83 -6)"/><path class="cls-7" d="M74.24,49.76a1.6,1.6,0,0,1-2.25.15l-2-1.72a1.59,1.59,0,0,1-.25-2.12l-3,3.38A1.6,1.6,0,0,0,67,51.7l2,1.72a1.6,1.6,0,0,0,2.25-.15Z" transform="translate(-16.83 -6)"/><path class="cls-6" d="M29.93,6.55,25.16,12a1.6,1.6,0,0,0,.15,2.25l2,1.72a1.6,1.6,0,0,0,2.25-.15l4.77-5.45a1.61,1.61,0,0,0-.15-2.26l-2-1.72A1.59,1.59,0,0,0,29.93,6.55Z" transform="translate(-16.83 -6)"/><path class="cls-7" d="M32.71,12.14a1.59,1.59,0,0,1-2.25.15l-2-1.71a1.6,1.6,0,0,1-.33-2l-3,3.43a1.6,1.6,0,0,0,.15,2.25l2,1.72a1.6,1.6,0,0,0,2.25-.15Z" transform="translate(-16.83 -6)"/><path class="cls-1" d="M84.28,85.66l-.79-3.08a8.91,8.91,0,0,0-8.63-6.7H26.34a8.92,8.92,0,0,0-8.64,6.7l-.79,3.08A2.68,2.68,0,0,0,19.5,89H81.69A2.67,2.67,0,0,0,84.28,85.66Z" transform="translate(-16.83 -6)"/><path class="cls-4" d="M21.93,85.66l.79-3.08a8.91,8.91,0,0,1,8.63-6.7h-5a8.92,8.92,0,0,0-8.64,6.7l-.79,3.08A2.68,2.68,0,0,0,19.5,89h5A2.67,2.67,0,0,1,21.93,85.66Z" transform="translate(-16.83 -6)"/><path class="cls-7" d="M38.5,84.2A1.25,1.25,0,0,1,37.24,83V80.76a1.26,1.26,0,0,1,2.51,0V83A1.25,1.25,0,0,1,38.5,84.2Z" transform="translate(-16.83 -6)"/><path class="cls-7" d="M62.7,84.2A1.25,1.25,0,0,1,61.45,83V80.76a1.25,1.25,0,0,1,2.5,0V83A1.25,1.25,0,0,1,62.7,84.2Z" transform="translate(-16.83 -6)"/><path class="cls-7" d="M50.6,85.37a5.17,5.17,0,0,1-3.93-1.75A1.25,1.25,0,0,1,48.55,82a2.72,2.72,0,0,0,2.05.9,2.68,2.68,0,0,0,2-.9,1.25,1.25,0,0,1,1.89,1.65A5.18,5.18,0,0,1,50.6,85.37Z" transform="translate(-16.83 -6)"/><text class="cls-8" transform="translate(75.17 65.07)">Cie<tspan class="cls-9" x="78.62" y="0">n</tspan><tspan x="111.74" y="0">cias A</tspan><tspan class="cls-10" x="256.55" y="0">r</tspan><tspan class="cls-9" x="276.33" y="0">a</tspan><tspan class="cls-11" x="305.71" y="0">gón</tspan></text></svg>